<?xml version="1.0" encoding="utf-8"?><svg xmlns="http://www.w3.org/2000/svg" width="512" height="512" viewBox="0 0 1024 1024" preserveAspectRatio="xMidYMid meet">
<g transform="translate(512 512) scale(1.6) translate(-530 -520)">
<path fill="#111" d="M252.794 362.408C256.137 360.008 262.615 356.544 266.318 354.434L289.207 341.423L362.502 299.897L459.603 244.783C475.139 235.936 495.959 223.07 511.602 215.385C515.418 216.417 532.013 226.331 536.289 228.782L585.217 256.709L718.132 331.937C730.188 338.704 742.18 345.584 754.107 352.577C758.292 355.025 767.34 359.959 770.452 362.78C769.913 370.178 770.489 384.145 770.485 392.142L770.393 449.75C770.406 460.466 770.793 473.011 770.339 483.57L735.763 464.466C729.516 461.017 721.486 456.835 715.615 453.061C714.752 434.458 715.834 413.68 715.324 394.642C708.665 390.179 694.747 383.119 687.301 378.929L632.511 347.781L539.747 295.092C530.589 289.978 521.413 284.434 512.177 279.544C463.007 307.982 413.626 336.052 364.036 363.752C348.199 372.532 332.701 381.954 316.744 390.537C314.185 391.913 311.778 393.345 309.106 394.511C307.772 410.485 309.246 431.601 308.774 448.21C308.571 455.374 308.078 478.196 309.026 483.72C312.848 486.24 319.607 489.656 323.909 492.061L352.588 508.164L431.236 551.77C415.507 561.616 391.008 575.205 374.704 583.497C357.177 575.051 336.731 562.373 319.502 552.832C297.325 540.551 275.247 527.678 253.012 515.431C251.796 484.478 252.723 448.454 252.789 417.174L252.568 383.623C252.512 377.011 252.26 368.849 252.794 362.408Z"/>
<path fill="#111" d="M593.744 472.459C602.84 466.918 614.811 461.047 624.264 455.505C629.216 452.602 646.515 442.818 650.788 441.4C656.311 443.939 665.384 449.222 670.971 452.254C687.585 461.337 704.112 470.581 720.548 479.983C731.309 486.042 742.129 491.995 753.007 497.841C758.275 500.709 765.707 504.497 770.62 507.653C770.092 511.481 770.57 532.743 770.553 537.754L770.478 629.266C770.472 633.942 770.046 659.04 770.597 661.428C765.486 665.377 744.706 676.419 738.272 680.072L673.475 717.205C635.694 738.902 597.796 760.394 559.781 781.68C549.952 787.068 540.163 792.531 530.415 798.067C525.627 800.806 516.144 806.649 511.455 808.644C497.53 802.026 479.706 791.075 465.941 783.237L371.373 729.017L290.853 683.468L267.601 670.374C263.195 667.901 256.95 664.649 253.011 661.734C252.474 656.465 252.707 649.132 252.733 643.696L252.827 614.731C252.777 590.981 251.869 563.755 252.667 540.325C260.098 544.154 303.541 568.001 307.564 572.005C308.654 573.09 308.778 574.032 308.902 575.518C309.405 581.542 309.001 587.844 308.979 593.904C308.858 605.962 308.902 618.022 309.109 630.079C319.347 636.467 333.515 643.82 344.3 649.809L403.584 682.976C438.754 702.641 476.974 725.592 512.435 744.033C523.728 738.21 535.429 731.188 546.535 724.827L594.914 697.227L715.85 629.012L715.524 541.324C710.377 537.412 702.149 533.273 696.282 529.972C684.958 523.452 673.55 517.078 662.061 510.853C639.348 498.476 616.454 485.12 593.744 472.459Z"/>
<path fill="#111" d="M511.388 362.95C515.269 364.263 529.422 372.645 533.924 375.138L595.193 409.555C601.284 413.033 607.424 416.425 613.612 419.729C617.885 422.001 625.118 425.549 628.718 428.328C609.796 438.732 590.963 449.296 572.22 460.018C568.052 458.231 561.594 454.38 557.46 452.065C548.722 447.193 540.017 442.262 531.344 437.274C525.083 433.681 518.051 429.404 511.537 426.428C502.131 430.92 488.26 439.858 478.6 445.144C468.74 450.54 453.659 458.389 444.99 464.402C448.61 467.018 456.788 471.145 460.971 473.421C469.304 477.954 477.573 482.602 485.777 487.364L604.227 554.033C613.33 559.187 622.472 564.273 631.652 569.29C638.568 573.002 648.083 577.679 654.458 581.965C642.161 589.675 624.147 599.07 611.174 606.343L555.963 637.676C542.181 645.411 528.421 652.747 514.717 660.677L512.503 661.683C510.857 661.49 509.04 660.672 507.622 659.812C483.105 644.944 457.363 632.001 432.836 617.15C421.044 610.01 407.755 603.824 396.324 596.415C402.62 592.064 415.438 585.474 422.472 581.478C431.111 576.571 443.263 569.055 451.929 564.854C456.72 566.666 466.675 572.664 471.509 575.302C484.872 582.596 498.082 590.415 511.671 597.311C519.699 593.773 531.186 586.984 539.031 582.642C552.297 575.379 565.524 568.047 578.713 560.646C571.9 556.206 562.244 551.233 554.956 547.104L506.018 519.511L369.596 442.636C381.647 436.949 398.573 426.543 410.592 419.662L480.925 379.905C489.21 375.3 503.625 366.299 511.388 362.95Z"/>
<path fill="white" fill-opacity="0.94901961" d="M770.62 507.653C771.549 509.024 771.533 510.299 771.538 511.971C771.652 544.95 771.551 578.002 771.56 610.98L771.56 643.347C771.558 647.681 772.003 657.774 770.597 661.428C770.046 659.04 770.472 633.942 770.478 629.266L770.553 537.754C770.57 532.743 770.092 511.481 770.62 507.653Z"/>
<path fill="white" fill-opacity="0.94509804" d="M770.452 362.78C772.223 367.257 771.575 386.061 771.571 391.95L771.535 434.825L771.552 464.911C771.566 470.258 771.803 477.8 771.356 483.004C770.624 483.568 770.987 483.431 770.339 483.57C770.793 473.011 770.406 460.466 770.393 449.75L770.485 392.142C770.489 384.145 769.913 370.178 770.452 362.78Z"/>
</g>
</svg>